<svg width="218" height="60" viewBox="0 0 218 60" fill="none" xmlns="http://www.w3.org/2000/svg">
<path d="M39.6553 5C36.9126 5.00281 34.2831 5.99238 32.3437 7.7516C30.4043 9.51085 29.3133 11.8961 29.3103 14.384V20.6398H20.6897V14.384C20.6757 11.9036 19.5796 9.52909 17.6411 7.77963C15.7026 6.03018 13.0793 5.0481 10.3449 5.0481C7.61038 5.0481 4.98712 6.03018 3.04861 7.77963C1.1101 9.52909 0.0140146 11.9036 0 14.384V45.6641C0.0140146 48.1445 1.1101 50.5189 3.04861 52.2684C4.98712 54.0178 7.61038 55 10.3449 55C13.0793 55 15.7026 54.0178 17.6411 52.2684C19.5796 50.5189 20.6757 48.1445 20.6897 45.6641V42.5361L17.2414 40.972V45.6641C17.2414 46.9015 16.8369 48.111 16.0791 49.1398C15.3212 50.1686 14.2441 50.9703 12.9839 51.4439C11.7237 51.9173 10.337 52.0413 8.99914 51.7999C7.66133 51.5583 6.43246 50.9627 5.46796 50.0877C4.50346 49.2128 3.84662 48.0979 3.58053 46.8845C3.31447 45.6708 3.45108 44.4129 3.97311 43.2698C4.49514 42.1268 5.37915 41.1495 6.51335 40.4622C7.64753 39.7748 8.98096 39.408 10.345 39.408H39.6553C41.0194 39.408 42.3528 39.7748 43.4868 40.4624C44.621 41.1498 45.5049 42.1268 46.0269 43.27C46.5489 44.4132 46.6856 45.671 46.4193 46.8845C46.1533 48.0982 45.4965 49.2128 44.5319 50.0877C43.5675 50.9627 42.3387 51.5586 41.0006 51.7999C39.6629 52.0413 38.2762 51.9173 37.0159 51.4439C35.7559 50.9703 34.6787 50.1686 33.9208 49.1398C33.1632 48.111 32.7586 46.9015 32.7586 45.6641V42.5361L29.3103 40.972V45.6641C29.3244 48.1445 30.4203 50.5189 32.3589 52.2684C34.2975 54.0178 36.9208 55 39.655 55C42.3895 55 45.0128 54.0178 46.9514 52.2684C48.89 50.5189 49.9859 48.1445 50 45.6641V14.384C49.997 11.8961 48.906 9.51092 46.9666 7.7517C45.0275 5.99247 42.3979 5.00287 39.6553 5ZM32.7586 14.384C32.7586 13.1467 33.163 11.9371 33.9208 10.9083C34.6787 9.87947 35.7556 9.07758 37.0159 8.60403C38.2759 8.13051 39.6626 8.00657 41.0006 8.24793C42.3384 8.48929 43.5672 9.0851 44.5319 9.96001C45.4965 10.8349 46.1533 11.9496 46.4193 13.1632C46.6856 14.3768 46.5489 15.6346 46.0269 16.7778C45.5049 17.9209 44.621 18.898 43.487 19.5854C42.3528 20.2729 41.0194 20.6398 39.6553 20.6398H32.7586V14.384ZM10.345 8.12802C12.1734 8.12996 13.9263 8.78972 15.2192 9.96253C16.5121 11.1353 17.2393 12.7254 17.2414 14.384V20.6398H10.345C9.43569 20.645 8.53423 20.487 7.6925 20.1749C6.85077 19.8628 6.08537 19.4028 5.44038 18.8214C4.79536 18.24 4.28346 17.5486 3.93417 16.787C3.58488 16.0255 3.40504 15.2087 3.40504 14.3839C3.40504 13.559 3.58488 12.7423 3.93417 11.9808C4.28346 11.2192 4.79536 10.5278 5.44038 9.94635C6.08537 9.36494 6.85077 8.90495 7.6925 8.59289C8.53423 8.28082 9.43569 8.12284 10.345 8.12802ZM39.6553 36.2794H10.345C7.7988 36.2775 5.34198 37.1307 3.44833 38.6748V21.3724C5.34201 22.9163 7.79883 23.7696 10.345 23.7675H39.6553C42.2014 23.7695 44.6582 22.9163 46.5517 21.3724V38.6748C44.6582 37.1307 42.2014 36.2775 39.6553 36.2794Z" fill="#369F76"/>
<path d="M80.2 16.2V44H75.64V31.84H62.56V44H58V16.2H62.56V28.12H75.64V16.2H80.2ZM95.7631 44.36C93.6831 44.36 91.8031 43.8933 90.1231 42.96C88.4431 42 87.1231 40.6667 86.1631 38.96C85.2031 37.2267 84.7231 35.2267 84.7231 32.96C84.7231 30.72 85.2165 28.7333 86.2031 27C87.1898 25.2667 88.5365 23.9333 90.2431 23C91.9498 22.0667 93.8565 21.6 95.9631 21.6C98.0698 21.6 99.9765 22.0667 101.683 23C103.39 23.9333 104.736 25.2667 105.723 27C106.71 28.7333 107.203 30.72 107.203 32.96C107.203 35.2 106.696 37.1867 105.683 38.92C104.67 40.6533 103.283 42 101.523 42.96C99.7898 43.8933 97.8698 44.36 95.7631 44.36ZM95.7631 40.4C96.9365 40.4 98.0298 40.12 99.0431 39.56C100.083 39 100.923 38.16 101.563 37.04C102.203 35.92 102.523 34.56 102.523 32.96C102.523 31.36 102.216 30.0133 101.603 28.92C100.99 27.8 100.176 26.96 99.1631 26.4C98.1498 25.84 97.0565 25.56 95.8831 25.56C94.7098 25.56 93.6165 25.84 92.6031 26.4C91.6165 26.96 90.8298 27.8 90.2431 28.92C89.6565 30.0133 89.3631 31.36 89.3631 32.96C89.3631 35.3333 89.9631 37.1733 91.1631 38.48C92.3898 39.76 93.9231 40.4 95.7631 40.4ZM119.711 44.36C117.978 44.36 116.418 44.0533 115.031 43.44C113.671 42.8 112.591 41.9467 111.791 40.88C110.991 39.7867 110.564 38.5733 110.511 37.24H115.231C115.311 38.1733 115.751 38.96 116.551 39.6C117.378 40.2133 118.404 40.52 119.631 40.52C120.911 40.52 121.898 40.28 122.591 39.8C123.311 39.2933 123.671 38.6533 123.671 37.88C123.671 37.0533 123.271 36.44 122.471 36.04C121.698 35.64 120.458 35.2 118.751 34.72C117.098 34.2667 115.751 33.8267 114.711 33.4C113.671 32.9733 112.764 32.32 111.991 31.44C111.244 30.56 110.871 29.4 110.871 27.96C110.871 26.7867 111.218 25.72 111.911 24.76C112.604 23.7733 113.591 23 114.871 22.44C116.178 21.88 117.671 21.6 119.351 21.6C121.858 21.6 123.871 22.24 125.391 23.52C126.938 24.7733 127.764 26.4933 127.871 28.68H123.311C123.231 27.6933 122.831 26.9067 122.111 26.32C121.391 25.7333 120.418 25.44 119.191 25.44C117.991 25.44 117.071 25.6667 116.431 26.12C115.791 26.5733 115.471 27.1733 115.471 27.92C115.471 28.5067 115.684 29 116.111 29.4C116.538 29.8 117.058 30.12 117.671 30.36C118.284 30.5733 119.191 30.8533 120.391 31.2C121.991 31.6267 123.298 32.0667 124.311 32.52C125.351 32.9467 126.244 33.5867 126.991 34.44C127.738 35.2933 128.124 36.4267 128.151 37.84C128.151 39.0933 127.804 40.2133 127.111 41.2C126.418 42.1867 125.431 42.96 124.151 43.52C122.898 44.08 121.418 44.36 119.711 44.36ZM138.398 25.68V37.88C138.398 38.7067 138.585 39.3067 138.958 39.68C139.358 40.0267 140.025 40.2 140.958 40.2H143.758V44H140.158C138.105 44 136.531 43.52 135.438 42.56C134.345 41.6 133.798 40.04 133.798 37.88V25.68H131.198V21.96H133.798V16.48H138.398V21.96H143.758V25.68H138.398ZM168.161 32.44C168.161 33.2667 168.108 34.0133 168.001 34.68H151.161C151.294 36.44 151.948 37.8533 153.121 38.92C154.294 39.9867 155.734 40.52 157.441 40.52C159.894 40.52 161.628 39.4933 162.641 37.44H167.561C166.894 39.4667 165.681 41.1333 163.921 42.44C162.188 43.72 160.028 44.36 157.441 44.36C155.334 44.36 153.441 43.8933 151.761 42.96C150.108 42 148.801 40.6667 147.841 38.96C146.908 37.2267 146.441 35.2267 146.441 32.96C146.441 30.6933 146.894 28.7067 147.801 27C148.734 25.2667 150.028 23.9333 151.681 23C153.361 22.0667 155.281 21.6 157.441 21.6C159.521 21.6 161.374 22.0533 163.001 22.96C164.628 23.8667 165.894 25.1467 166.801 26.8C167.708 28.4267 168.161 30.3067 168.161 32.44ZM163.401 31C163.374 29.32 162.774 27.9733 161.601 26.96C160.428 25.9467 158.974 25.44 157.241 25.44C155.668 25.44 154.321 25.9467 153.201 26.96C152.081 27.9467 151.414 29.2933 151.201 31H163.401ZM177.208 14.4V44H172.648V14.4H177.208ZM187.755 14.4V44H183.195V14.4H187.755ZM192.222 32.88C192.222 30.6667 192.676 28.7067 193.582 27C194.516 25.2933 195.769 23.9733 197.342 23.04C198.942 22.08 200.702 21.6 202.622 21.6C204.356 21.6 205.862 21.9467 207.142 22.64C208.449 23.3067 209.489 24.1467 210.262 25.16V21.96H214.862V44H210.262V40.72C209.489 41.76 208.436 42.6267 207.102 43.32C205.769 44.0133 204.249 44.36 202.542 44.36C200.649 44.36 198.916 43.88 197.342 42.92C195.769 41.9333 194.516 40.5733 193.582 38.84C192.676 37.08 192.222 35.0933 192.222 32.88ZM210.262 32.96C210.262 31.44 209.942 30.12 209.302 29C208.689 27.88 207.876 27.0267 206.862 26.44C205.849 25.8533 204.756 25.56 203.582 25.56C202.409 25.56 201.316 25.8533 200.302 26.44C199.289 27 198.462 27.84 197.822 28.96C197.209 30.0533 196.902 31.36 196.902 32.88C196.902 34.4 197.209 35.7333 197.822 36.88C198.462 38.0267 199.289 38.9067 200.302 39.52C201.342 40.1067 202.436 40.4 203.582 40.4C204.756 40.4 205.849 40.1067 206.862 39.52C207.876 38.9333 208.689 38.08 209.302 36.96C209.942 35.8133 210.262 34.48 210.262 32.96Z" fill="#369F76"/>
</svg>
